name analog
datacolumns 19
datarows 28
range 0.28550000000000003 0.299
endheader
time	ground_force_vx	ground_force_vy	ground_force_vz	ground_force_px	ground_force_py	ground_force_pz	l_ground_force_vx	l_ground_force_vy	l_ground_force_vz	l_ground_force_px	l_ground_force_py	l_ground_force_pz	ground_torque_x	ground_torque_y	ground_torque_z	l_ground_torque_x	l_ground_torque_y	l_ground_torque_z
0.28550000000000003	-0.0	-0.0	-0.0	-2.523169755935669	46.23580551147461	-333.13934326171875	2.572612762451172	-46.67964553833008	-282.7998962402344	-0.0	-0.0	-0.0	-0.0	-0.0	-0.0	70168.7265625	-29509.767578125	4513.18994140625
0.28600000000000003	-0.0	-0.0	-0.0	-2.609954833984375	45.88151550292969	-334.7154541015625	2.3523850440979004	-46.76478958129883	-283.3426513671875	-0.0	-0.0	-0.0	-0.0	-0.0	-0.0	70107.828125	-29437.720703125	4581.08203125
0.28650000000000003	-0.0	-0.0	-0.0	-2.541579484939575	46.101322174072266	-332.9585876464844	2.263500690460205	-46.41167449951172	-284.1086120605469	-0.0	-0.0	-0.0	-0.0	-0.0	-0.0	70205.9765625	-29340.9765625	4542.79150390625
0.28700000000000003	-0.0	-0.0	-0.0	-2.6064279079437256	45.92316436767578	-334.3646850585937	2.329311847686768	-46.65658187866211	-283.7704162597656	-0.0	-0.0	-0.0	-0.0	-0.0	-0.0	70398.34375	-29076.439453125	4520.76904296875
0.28750000000000003	-0.0	-0.0	-0.0	-2.0984771251678467	45.83564758300781	-334.0185852050781	2.529391288757324	-46.48211288452149	-283.9497985839844	-0.0	-0.0	-0.0	-0.0	-0.0	-0.0	70341.6171875	-29251.50390625	4624.4296875
0.28800000000000003	-0.0	-0.0	-0.0	-2.564511299133301	45.7464714050293	-333.1381530761719	2.440586566925049	-47.09806060791016	-283.6004638671875	-0.0	-0.0	-0.0	-0.0	-0.0	-0.0	70290.8984375	-29329.619140625	4564.92919921875
0.2885	-0.0	-0.0	-0.0	-2.274353504180908	45.85810470581055	-333.31256103515625	2.376420259475708	-46.63385009765625	-284.3878173828125	-0.0	-0.0	-0.0	-0.0	-0.0	-0.0	70348.7421875	-29188.197265625	4505.70703125
0.289	-0.0	-0.0	-0.0	-2.253414869308472	45.96883773803711	-332.6038513183594	2.6387460231781006	-46.65792465209961	-283.9491577148437	-0.0	-0.0	-0.0	-0.0	-0.0	-0.0	70334.28125	-29231.916015625	4625.16552734375
0.2895	-0.0	-0.0	-0.0	-1.873968243598938	45.813026428222656	-334.10821533203125	2.351570844650269	-46.767066955566406	-283.2507019042969	-0.0	-0.0	-0.0	-0.0	-0.0	-0.0	70438.28125	-29391.939453125	4601.814453125
0.29	-0.0	-0.0	-0.0	-1.9174981117248533	46.0800666809082	-334.2841491699219	2.4851789474487305	-46.85402297973633	-284.2094116210937	-0.0	-0.0	-0.0	-0.0	-0.0	-0.0	70377.78125	-29196.87109375	4528.8916015625
0.2905	-0.0	-0.0	-0.0	-1.650390386581421	46.50378036499024	-333.7550354003906	2.527792453765869	-46.65616226196289	-284.1285400390625	-0.0	-0.0	-0.0	-0.0	-0.0	-0.0	70598.2578125	-29194.421875	4536.0390625
0.291	-0.0	-0.0	-0.0	-1.561392307281494	46.348087310791016	-334.1974792480469	2.239355087280273	-46.65691757202149	-285.8671264648437	-0.0	-0.0	-0.0	-0.0	-0.0	-0.0	70499.6015625	-29529.57421875	4469.275390625
0.2915	-0.0	-0.0	-0.0	-1.3603382110595703	46.07992935180664	-332.8730773925781	2.0621938705444336	-46.45720672607422	-284.3848571777344	-0.0	-0.0	-0.0	-0.0	-0.0	-0.0	70373.0390625	-29568.9765625	4557.9287109375
0.292	-0.0	-0.0	-0.0	-1.5165786743164062	46.03551483154297	-332.9637145996094	2.284238338470459	-47.075462341308594	-285.60504150390625	-0.0	-0.0	-0.0	-0.0	-0.0	-0.0	70292.09375	-29338.224609375	4639.3974609375
0.2925	-0.0	-0.0	-0.0	-1.1842730045318604	46.14746856689453	-333.4925842285156	2.040348052978516	-46.7222900390625	-284.2098999023437	-0.0	-0.0	-0.0	-0.0	-0.0	-0.0	70469.7890625	-29410.08984375	4557.845703125
0.293	-0.0	-0.0	-0.0	-0.9801541566848756	46.217018127441406	-332.9569396972656	2.284586906433105	-47.16378021240234	-284.383544921875	-0.0	-0.0	-0.0	-0.0	-0.0	-0.0	70560.4453125	-29527.447265625	4713.7001953125
0.2935	-0.0	-0.0	-0.0	-0.9387378096580504	46.01458740234375	-332.60321044921875	2.351043462753296	-47.0543098449707	-285.3470458984375	-0.0	-0.0	-0.0	-0.0	-0.0	-0.0	70571.6171875	-29305.314453125	4491.27294921875
0.294	-0.0	-0.0	-0.0	-1.006224274635315	46.238258361816406	-331.9891357421875	2.6166954040527344	-47.20821762084961	-284.9056091308594	-0.0	-0.0	-0.0	-0.0	-0.0	-0.0	70447.4140625	-29538.212890625	4662.04736328125
0.2945	-0.0	-0.0	-0.0	-0.71368408203125	46.127742767333984	-331.9891357421875	2.2397241592407227	-47.23113250732422	-283.9466857910156	-0.0	-0.0	-0.0	-0.0	-0.0	-0.0	70596.90625	-29574.400390625	4461.2265625
0.295	-0.0	-0.0	-0.0	-0.4242424666881561	46.25868225097656	-332.9701232910156	2.484927177429199	-46.98713684082031	-284.5625915527344	-0.0	-0.0	-0.0	-0.0	-0.0	-0.0	70615.734375	-29400.650390625	4662.09033203125
0.2955	-0.0	-0.0	-0.0	-0.5181788206100464	46.328426361083984	-333.153076171875	2.3296873569488525	-46.85534286499024	-285.43414306640625	-0.0	-0.0	-0.0	-0.0	-0.0	-0.0	70594.546875	-29467.4140625	4491.388671875
0.296	-0.0	-0.0	-0.0	-0.291816771030426	45.81553649902344	-332.1806335449219	2.0621349811553955	-47.075462341308594	-284.2094116210937	-0.0	-0.0	-0.0	-0.0	-0.0	-0.0	70604.828125	-29437.734375	4572.86474609375
0.2965	-0.0	-0.0	-0.0	-0.2512721419334411	45.702274322509766	-332.6098327636719	2.2395241260528564	-47.23212814331055	-283.590087890625	-0.0	-0.0	-0.0	-0.0	-0.0	-0.0	70547.03125	-29442.328125	4557.2919921875
0.297	-0.0	-0.0	-0.0	-0.359832614660263	45.7914924621582	-330.9296264648437	2.107391119003296	-47.18535232543945	-283.24725341796875	-0.0	-0.0	-0.0	-0.0	-0.0	-0.0	70296.25	-29391.43359375	4653.3310546875
0.2975	-0.0	-0.0	-0.0	-0.2676315307617187	46.17267227172852	-334.3885803222656	2.0187127590179443	-46.8083381652832	-284.7289123535156	-0.0	-0.0	-0.0	-0.0	-0.0	-0.0	70408.46875	-29601.658203125	4520.18408203125
0.298	-0.0	-0.0	-0.0	-0.4212624430656433	45.42842483520508	-332.6236267089844	2.107471227645874	-46.853477478027344	-283.8695373535156	-0.0	-0.0	-0.0	-0.0	-0.0	-0.0	70328.2421875	-29611.248046875	4632.4150390625
0.2985	-0.0	-0.0	-0.0	0.0678243264555931	45.813026428222656	-331.1836242675781	1.8844273090362549	-46.89881896972656	-285.3628234863281	-0.0	-0.0	-0.0	-0.0	-0.0	-0.0	70231.7734375	-29563.42578125	4528.02587890625
0.299	-0.0	-0.0	-0.0	0.4460525512695312	46.01260757446289	-332.1428527832031	1.9759883880615237	-47.09970474243164	-285.2682800292969	-0.0	-0.0	-0.0	-0.0	-0.0	-0.0	70172.40625	-29369.76953125	4513.6923828125
